<?xml version="1.0" encoding="UTF-8"?>
<svg version="1.1" xmlns="http://www.w3.org/2000/svg" width="640" height="640">
<path d="M0 0 C4.24820584 0.00684904 8.49637603 -0.00371944 12.74457455 -0.01193976 C21.04519273 -0.02521744 29.34572912 -0.02242613 37.64635038 -0.01370184 C44.39780786 -0.00690207 51.14924255 -0.00601844 57.90070248 -0.00927329 C58.86486729 -0.00973299 59.82903211 -0.01019269 60.82241404 -0.01066632 C62.78164054 -0.01162558 64.74086703 -0.01259822 66.70009351 -0.01358409 C85.03342211 -0.02212051 103.36670556 -0.01233137 121.70002675 0.00381701 C137.40046582 0.01721859 153.10083833 0.01489 168.80127621 0.00106072 C187.07299487 -0.01502606 205.34467406 -0.0212967 223.61639881 -0.01210248 C225.5680596 -0.01114693 227.51972039 -0.01020381 229.47138119 -0.00927329 C230.43141288 -0.00881046 231.39144458 -0.00834764 232.38056815 -0.00787079 C239.11694425 -0.00529018 245.85329513 -0.00963175 252.58966732 -0.01671195 C260.8090333 -0.02516167 269.02831344 -0.02277428 277.2476697 -0.00686972 C281.43414275 0.00096655 285.62047313 0.00418481 289.80694485 -0.00581717 C327.23857244 -0.08787499 327.23857244 -0.08787499 344.74854183 6.07967401 C345.48475765 6.33313592 346.22097347 6.58659783 346.97949886 6.84774041 C379.33788318 18.39589427 405.5776457 41.88373427 420.49854183 72.76717401 C430.22178514 93.60299564 432.84692483 115.04753592 432.8197546 137.86306024 C432.82162695 139.28919535 432.82392933 140.71532995 432.82661992 142.14146376 C432.83269183 146.02841222 432.83260982 149.91533904 432.83142555 153.80229115 C432.83122037 158.00692786 432.83675139 162.21155783 432.84148312 166.41619134 C432.84976465 174.64160164 432.85253682 182.86700476 432.85309549 191.09241888 C432.8535718 197.78249993 432.85563224 204.47257863 432.85879612 211.16265893 C432.86759551 230.15749656 432.87221656 249.15232856 432.87146565 268.14716825 C432.87140571 269.68093633 432.87140571 269.68093633 432.87134457 271.24568963 C432.87128325 272.78134422 432.87128325 272.78134422 432.87122069 274.34802213 C432.87081431 290.93603336 432.88038351 307.52402188 432.89448293 324.11202654 C432.90886766 341.17115252 432.91575198 358.23026743 432.91488916 375.28939962 C432.91455793 384.85610516 432.91727223 394.42278688 432.92806721 403.98948693 C432.93719979 412.13468789 432.93932485 420.27985422 432.93255778 428.4250581 C432.9293066 432.57489394 432.92918487 436.72466347 432.93791103 440.87449288 C432.94583933 444.68429562 432.94428095 448.49398016 432.9356269 452.30378023 C432.93339331 454.31149726 432.94087047 456.31921815 432.94886655 458.32692051 C432.83702313 488.23368733 424.35457087 516.56614703 403.43604183 538.50154901 C401.62490736 540.28163045 401.62490736 540.28163045 400.68604183 542.39217401 C400.02604183 542.39217401 399.36604183 542.39217401 398.68604183 542.39217401 C398.68604183 543.05217401 398.68604183 543.71217401 398.68604183 544.39217401 C395.21870117 547.62879808 391.43165892 550.48584372 387.68604183 553.39217401 C386.89584652 554.00834588 386.10565121 554.62451776 385.29151058 555.25936151 C363.45484729 571.40435617 338.37929628 576.55109028 311.72330379 576.5326159 C310.21924939 576.53520396 308.71519568 576.53821834 307.2111429 576.5416193 C303.09936917 576.54964092 298.98761294 576.55147616 294.87583232 576.55221677 C290.43249821 576.55407583 285.989173 576.56162746 281.54584408 576.56835198 C271.83879261 576.58190195 262.1317453 576.58795497 252.42468596 576.59236264 C246.3555982 576.59513103 240.28651203 576.59936949 234.21742535 576.60386682 C217.39146748 576.61605572 200.56551087 576.62635539 183.73954868 576.62974191 C182.66378542 576.62996147 181.58802215 576.63018104 180.47966 576.63040726 C179.40141922 576.63062554 178.32317844 576.63084381 177.2122637 576.63106871 C175.02757907 576.63151216 172.84289443 576.63195873 170.6582098 576.63240838 C169.57454602 576.63262981 168.49088224 576.63285124 167.37438016 576.63307938 C149.83188865 576.63702382 132.28943878 576.65446875 114.74696334 576.6777679 C96.70703057 576.70153297 78.66711863 576.71394612 60.62716997 576.71510983 C50.51032293 576.71602375 40.39353013 576.72170456 30.27669811 576.73992944 C21.6587101 576.75540025 13.04079309 576.76041003 4.42279382 576.75219133 C0.03346554 576.74830924 -4.35572007 576.74909357 -8.7450304 576.76324868 C-48.71551347 576.88456727 -81.22057669 571.7214607 -111.31395817 543.39217401 C-112.21888004 542.58393182 -112.21888004 542.58393182 -113.14208317 541.75936151 C-131.41389488 524.76828426 -142.7574276 498.2504898 -144.59342551 473.64716685 C-144.69644679 469.73928715 -144.71495691 465.83722805 -144.6949091 461.92859674 C-144.69837557 460.43117339 -144.7031467 458.93375261 -144.70909083 457.43633705 C-144.72149524 453.36613595 -144.71547918 449.29614865 -144.70613217 445.22594726 C-144.69929804 440.81885848 -144.7098445 436.41180452 -144.71807194 432.00472283 C-144.73136622 423.38799714 -144.72855051 414.77135014 -144.71983401 406.15462144 C-144.71303954 399.14568786 -144.71214836 392.13677622 -144.71540546 385.12784028 C-144.71586516 384.12761351 -144.71632486 383.12738674 -144.71679849 382.09685007 C-144.71775774 380.06442524 -144.71873038 378.03200041 -144.71971627 375.99957559 C-144.7282579 356.96948551 -144.718456 337.93943887 -144.70231517 318.90935592 C-144.68891929 302.61169604 -144.69123645 286.3141003 -144.70507145 270.01644158 C-144.72115965 251.05584187 -144.72742756 232.0952802 -144.71823466 213.13467461 C-144.71727909 211.10910142 -144.71633598 209.08352823 -144.71540546 207.05795503 C-144.71494264 206.06154063 -144.71447981 205.06512624 -144.71400296 204.03851747 C-144.71142231 197.04665432 -144.71576415 190.05481548 -144.72284412 183.06295609 C-144.73129568 174.52956226 -144.72890291 165.99625111 -144.71300189 157.46286663 C-144.70516711 153.11628929 -144.70194469 148.76984936 -144.71194935 144.42327332 C-144.78275921 110.90565185 -144.78275921 110.90565185 -141.31395817 96.39217401 C-141.09360086 95.46791462 -140.87324356 94.54365523 -140.64620876 93.59138799 C-140.12302071 91.5439823 -139.51110764 89.57387559 -138.81395817 87.57967401 C-138.56605534 86.85941033 -138.3181525 86.13914666 -138.06273746 85.39705682 C-125.72330679 51.38475599 -101.10731481 25.94903573 -68.73095036 10.4834826 C-64.94739153 8.77514846 -61.11587341 7.2983205 -57.18895817 5.95467401 C-56.54668278 5.73198846 -55.90440739 5.50930291 -55.24266911 5.27986932 C-52.95083222 4.55324394 -50.64793609 3.97132559 -48.31395817 3.39217401 C-47.31990971 3.13970595 -46.32586124 2.8872379 -45.3016901 2.6271193 C-30.37714579 -0.56945746 -15.18229635 -0.03627232 0 0 Z " fill="#132438" transform="translate(176.31395816802979,35.60782599449158)"/>
<path d="M0 0 C2.32115168 0.01612759 4.6405694 0.00002452 6.96166992 -0.01904297 C16.47490655 -0.03209657 25.01621857 0.97610696 34.2565918 3.39111328 C36.01434937 3.82580933 36.01434937 3.82580933 37.80761719 4.26928711 C59.14996302 9.6688045 77.10230036 20.74836487 93.2565918 35.39111328 C94.66038086 36.63441406 94.66038086 36.63441406 96.0925293 37.90283203 C119.08694189 59.41479683 132.63234052 92.76550191 133.73120117 123.97314453 C133.84515973 135.10601923 131.94509389 145.62365119 129.2565918 156.39111328 C129.08530762 157.10299805 128.91402344 157.81488281 128.73754883 158.54833984 C119.79028844 194.97340183 97.64897633 227.91906477 75.2565918 257.39111328 C74.12852637 258.89206881 73.00091766 260.3933677 71.8737793 261.89501953 C66.06834915 269.59439561 60.09646153 277.09748641 53.80737305 284.40673828 C51.38623698 287.2394304 49.03330152 290.11565709 46.6940918 293.01611328 C42.82079908 297.77631381 38.74899187 302.31916112 34.59643555 306.83642578 C32.59824331 309.01809143 30.63510291 311.22122637 28.6940918 313.45361328 C20.73256939 322.60010647 12.49630124 331.49613083 4.2565918 340.39111328 C1.13822846 339.017584 -0.86206248 337.47272355 -3.16918945 334.97705078 C-4.11761719 333.95804687 -4.11761719 333.95804687 -5.08520508 332.91845703 C-6.06070313 331.85304688 -6.06070313 331.85304688 -7.0559082 330.76611328 C-7.69463867 330.07904297 -8.33336914 329.39197266 -8.99145508 328.68408203 C-12.78301202 324.58904687 -16.4843913 320.42333591 -20.14697266 316.21289062 C-22.28325582 313.77506451 -24.48043362 311.39599427 -26.6809082 309.01611328 C-30.4917637 304.83849876 -34.069161 300.55179935 -37.55981445 296.10595703 C-40.15121921 292.88408529 -42.84818538 289.76517749 -45.5559082 286.64111328 C-51.51895396 279.73293508 -57.19480218 272.6351267 -62.7434082 265.39111328 C-63.2280957 264.75947266 -63.7127832 264.12783203 -64.2121582 263.47705078 C-89.8627061 229.94430327 -113.11025836 193.65970406 -123.7434082 152.39111328 C-123.92814697 151.75246338 -124.11288574 151.11381348 -124.30322266 150.45581055 C-126.26871213 142.99046819 -126.18426395 135.37107299 -126.1809082 127.70361328 C-126.18164337 126.97490021 -126.18237854 126.24618713 -126.18313599 125.49539185 C-126.1326401 106.38518533 -122.33456899 89.48837386 -113.7434082 72.39111328 C-113.28925537 71.44679443 -113.28925537 71.44679443 -112.82592773 70.48339844 C-98.49715659 40.71080619 -72.14564312 18.67910331 -41.5949707 6.69580078 C-27.80260882 1.86702838 -14.51517793 -0.11956742 0 0 Z " fill="#FDFDFD" transform="translate(316.743408203125,120.60888671875)"/>
<path d="M0 0 C0.9182959 0.00757324 1.8365918 0.01514648 2.78271484 0.02294922 C9.98214896 0.19718036 16.08431147 1.30301573 22.625 4.4375 C23.57632813 4.88480469 24.52765625 5.33210937 25.5078125 5.79296875 C39.15460899 12.72792119 48.65412504 23.84957882 53.96875 38.21875 C58.04449859 51.99866191 57.08600248 67.84717874 50.59619141 80.67236328 C42.71357016 94.99899768 30.69913154 104.15265576 15.421875 109.57421875 C0.87670135 112.88130041 -14.14190682 111.23037171 -27.09375 103.8984375 C-38.78903854 96.28206132 -46.0271123 87.11922838 -51.375 74.4375 C-51.65239014 73.82640381 -51.92978027 73.21530762 -52.21557617 72.58569336 C-54.53283548 67.12333676 -54.88076151 62.14413973 -54.8125 56.25 C-54.80420166 55.32525879 -54.79590332 54.40051758 -54.78735352 53.44775391 C-54.37612281 36.69120031 -47.29183435 24.41768362 -35.3359375 12.953125 C-24.91888549 4.10275364 -13.59431308 -0.15851226 0 0 Z " fill="#124F77" transform="translate(319.375,194.5625)"/>
<path d="M0 0 C2.01953125 1.75 2.01953125 1.75 3.8125 4 C4.41707031 4.7425 5.02164063 5.485 5.64453125 6.25 C6.09183594 6.8275 6.53914063 7.405 7 8 C4.31168607 10.68831393 1.40265186 11.04672946 -2.1875 11.875 C-3.6602943 12.23250469 -5.13294783 12.5905897 -6.60546875 12.94921875 C-9.25219558 13.58463983 -11.90060251 14.21103227 -14.55078125 14.83203125 C-43.38275539 21.98288327 -78.15103061 34.97770283 -95 61 C-98.93032514 67.90614274 -99.20051425 75.96388048 -97.37890625 83.60546875 C-90.33796949 103.28879863 -72.46939381 112.93375835 -55 122 C-53.92032959 122.56074219 -53.92032959 122.56074219 -52.81884766 123.1328125 C-48.57957206 125.29704846 -44.62779851 126.84305037 -40 128 C-40 128.66 -40 129.32 -40 130 C-39.38253906 130.10957031 -38.76507813 130.21914063 -38.12890625 130.33203125 C-37.28199219 130.49058594 -36.43507813 130.64914062 -35.5625 130.8125 C-34.73878906 130.96332031 -33.91507812 131.11414063 -33.06640625 131.26953125 C-27.53300196 132.58767979 -22.20925851 134.56941735 -16.8515625 136.46484375 C-2.13760373 141.6335845 12.58153716 144.77100366 28.0703125 146.50390625 C31.39809331 146.92401377 34.66370342 147.47020085 37.95584106 148.10638428 C57.23755481 151.81920012 76.79629308 152.3161232 96.38037109 152.20581055 C99.8174557 152.18713345 103.25427534 152.18530465 106.69140625 152.18554688 C108.8932315 152.1806443 111.09505495 152.17482158 113.296875 152.16796875 C114.3165033 152.16685593 115.33613159 152.1657431 116.38665771 152.16459656 C117.80159515 152.15502678 117.80159515 152.15502678 119.24511719 152.14526367 C120.06985535 152.14145187 120.89459351 152.13764008 121.74432373 152.13371277 C123.9592402 152.00241617 125.86236656 151.56851551 128 151 C130.26896319 150.84470974 132.54042512 150.72492371 134.8125 150.625 C159.2769289 149.2683984 183.50144171 144.61195322 206.95898438 137.60742188 C208.93219951 137.02017794 210.91058376 136.45434495 212.890625 135.890625 C234.88527981 129.48306248 256.93763972 120.2781686 275 106 C276.051875 105.236875 277.10375 104.47375 278.1875 103.6875 C286.23694289 95.99581012 292.06171076 87.39136303 292.375 76.125 C292.06800582 64.9551349 288.84164713 58.02659164 281 50 C272.72660954 42.71101028 263.66987909 37.23604439 254 32 C253.31615234 31.59942383 252.63230469 31.19884766 251.92773438 30.78613281 C246.46051778 27.61572319 240.98956021 25.36537693 235 23.375 C233.74316406 22.94574219 233.74316406 22.94574219 232.4609375 22.5078125 C229.97717737 21.66194992 227.48918947 20.82972982 225 20 C223.84552368 19.61001831 223.84552368 19.61001831 222.66772461 19.2121582 C217.65956518 17.52550035 212.63096319 15.93319873 207.5625 14.4375 C206.4643396 14.1132605 206.4643396 14.1132605 205.34399414 13.7824707 C199.93782328 12.2132068 194.54914818 10.96889889 189 10 C189 5.96263521 189.41892246 4.07775499 192.16015625 1.0859375 C195.55358224 -0.91697635 198.66393638 0.13250484 202.35546875 0.9609375 C208.96050851 2.84404637 215.44905742 5.01569731 221.92871094 7.2890625 C224.64018946 8.219735 227.38328675 9.03829187 230.125 9.875 C237.793591 12.43825832 244.88358884 16.20294153 252 20 C252.61166016 20.32516602 253.22332031 20.65033203 253.85351562 20.98535156 C272.63856166 31.07589815 289.81945342 43.11699805 299 63 C301.24686196 70.83877121 301.55422046 82.78273977 298.02734375 90.2265625 C297.68832031 90.81179688 297.34929687 91.39703125 297 92 C296.60941406 92.68835938 296.21882813 93.37671875 295.81640625 94.0859375 C281.72740738 116.83587902 257.32744447 129.83592872 233 139 C230.9550588 139.86731959 228.91320105 140.7419574 226.875 141.625 C221.6584007 143.81850267 216.36575825 145.50051409 210.94140625 147.1015625 C208.62339386 147.80958753 206.42646803 148.58472955 204.1875 149.5 C197.65573665 151.99467758 190.806849 153.46669847 184 155 C183.12682129 155.19883789 182.25364258 155.39767578 181.35400391 155.60253906 C137.91398372 165.27269161 87.06089835 169.80718132 43.21362305 160.45947266 C40.36598947 159.86840103 37.50976958 159.48837714 34.625 159.125 C-6.45058373 153.38420877 -51.4899322 140.70992077 -84 114 C-85.21236328 113.03320312 -85.21236328 113.03320312 -86.44921875 112.046875 C-95.63981984 104.3698364 -103.61820375 93.97514225 -106 82 C-107.22716237 67.51546054 -103.27181267 57.03379921 -94 46 C-88.19468161 39.2019973 -81.10746485 34.15573035 -73.74658203 29.18310547 C-72.19270052 28.13053211 -70.65560729 27.05327026 -69.12109375 25.97265625 C-53.60024943 15.6465435 -35.32155624 9.52639897 -17.6875 3.8125 C-16.49568115 3.42586182 -15.3038623 3.03922363 -14.07592773 2.64086914 C-4.37425223 -0.4012946 -4.37425223 -0.4012946 0 0 Z " fill="#114C76" transform="translate(223,379)"/>
<path d="M0 0 C20.12684569 4.81839697 39.38174144 12.5843049 56 25 C56.74636719 25.54398437 57.49273437 26.08796875 58.26171875 26.6484375 C64.69737551 31.70203348 70.33269084 39.51409792 71.3359375 47.76171875 C71.49097899 59.37432612 68.30728903 66.41231931 60.26953125 74.76171875 C59.52058594 75.50035156 58.77164062 76.23898437 58 77 C57.46761719 77.54269531 56.93523437 78.08539063 56.38671875 78.64453125 C46.79716861 87.6393806 33.90369365 93.3493508 21.86083984 98.24316406 C20.15746844 98.93595484 18.46298308 99.65049084 16.76953125 100.3671875 C1.33211544 106.66737494 -14.6300755 109.59886939 -31 112.25 C-31.80550293 112.38082977 -32.61100586 112.51165955 -33.44091797 112.64645386 C-47.59311555 114.92659815 -61.3956964 116.23438096 -75.75 116.25 C-76.84884018 116.25200912 -76.84884018 116.25200912 -77.96987915 116.25405884 C-88.93381368 116.24976512 -99.77510833 115.7435379 -110.6875 114.6875 C-111.90727539 114.56987305 -113.12705078 114.45224609 -114.38378906 114.33105469 C-151.69030025 110.33575316 -198.54102276 99.30636794 -223.53125 69.15234375 C-229.00048669 61.91832429 -230.05626394 54.87711181 -229 46 C-224.37103435 30.76486064 -210.00245791 21.23518958 -196.7890625 13.953125 C-190.74854854 10.74948968 -184.39805054 8.37984882 -178 6 C-176.99710938 5.59652344 -175.99421875 5.19304687 -174.9609375 4.77734375 C-163.1520363 0.13694455 -163.1520363 0.13694455 -157 1 C-154.41413783 2.7588522 -153.61673134 4.19766568 -152 7 C-152 7.99 -152 8.98 -152 10 C-152.55647217 10.13986328 -153.11294434 10.27972656 -153.6862793 10.42382812 C-188.80869509 18.78443654 -188.80869509 18.78443654 -217 40 C-217.64195312 40.82757813 -217.64195312 40.82757813 -218.296875 41.671875 C-221.40082772 46.30654412 -221.90823007 50.63402844 -221 56 C-220.02854751 58.94164545 -218.68797997 61.40927125 -217 64 C-216.63390625 64.57363281 -216.2678125 65.14726562 -215.890625 65.73828125 C-197.20524221 90.82513777 -152.07619722 97.07661982 -123.5402832 101.29443359 C-112.86443351 102.83279554 -102.28638668 104.13762458 -91.48828125 104.23828125 C-90.60970459 104.24802979 -89.73112793 104.25777832 -88.82592773 104.26782227 C-67.49413583 104.45543697 -47.04886543 103.652784 -26 100 C-24.36973877 99.73509766 -24.36973877 99.73509766 -22.70654297 99.46484375 C3.98455413 95.0806027 39.36856378 87.2562983 58.0625 65.75 C58.701875 64.8425 59.34125 63.935 60 63 C60.598125 62.2575 61.19625 61.515 61.8125 60.75 C64.18330092 55.25972418 63.55784673 49.79098159 61.8125 44.1875 C59.83975778 40.71819472 58.01268141 38.61972296 55 36 C54.18015625 35.23429687 54.18015625 35.23429687 53.34375 34.453125 C37.53961192 20.78129127 14.06813766 14.22225669 -6 10 C-4.52069807 6.03520428 -2.76352943 3.22411767 0 0 Z " fill="#114D76" transform="translate(399,402)"/>
<path d="M0 0 C2.11917429 1.81954811 3.37037262 3.67196088 5 6 C4.67 6.99 4.34 7.98 4 9 C1.40642733 9.8806084 -1.09962517 10.59295041 -3.75 11.25 C-18.32964744 15.15459601 -18.32964744 15.15459601 -29 25 C-29.5005664 28.93302168 -29.48049062 31.15914141 -27.5 34.625 C-16.64356048 44.93861754 -1.06227699 48.03265572 13.1875 50.8125 C14.77087158 51.1228418 14.77087158 51.1228418 16.38623047 51.43945312 C54.97469809 58.5304198 106.18416572 58.26123891 140.94140625 38.45703125 C143.95811141 36.32186802 146.49017357 34.45166369 147.7421875 30.88671875 C147.95865266 27.30231038 147.80165546 24.96849746 145.4609375 22.140625 C136.54110741 15.26951914 124.60564852 11.53521617 114 8 C114.59927826 4.64404172 115.84622436 2.62198774 118 0 C124.07846389 0.47435058 128.55672842 1.80462485 133.9375 4.625 C134.98019043 5.16350586 134.98019043 5.16350586 136.04394531 5.71289062 C143.49619929 9.65636053 150.99315573 13.71474747 154.41015625 21.82421875 C155.91669456 27.38144948 155.93831392 32.15812452 153.3125 37.3125 C137.18405886 56.05636402 108.54120838 63.79029842 84.54736328 65.80371094 C77.21206663 66.20960072 69.86985549 66.22535852 62.52490234 66.24023438 C59.66603608 66.24986181 56.80791481 66.28092855 53.94921875 66.3125 C26.47551705 66.47059987 -7.28608427 62.72026926 -29 44 C-33.89673587 39.13026819 -37.06570217 35.47295862 -37.4375 28.375 C-37.33910369 22.22970346 -35.12484459 18.44983234 -31 14 C-25.45048246 8.97442535 -18.80803113 5.74681387 -12.125 2.5 C-11.38725342 2.13704834 -10.64950684 1.77409668 -9.8894043 1.40014648 C-9.185979 1.07216064 -8.48255371 0.7441748 -7.7578125 0.40625 C-7.1302002 0.11041016 -6.50258789 -0.18542969 -5.85595703 -0.49023438 C-3.54372686 -1.12532206 -2.23599344 -0.80471112 0 0 Z " fill="#114D77" transform="translate(261,426)"/>
<path d="M0 0 C6.8081907 8.08093851 9.27953548 20.12658787 11.3125 30.25 C11.47161865 31.04019531 11.6307373 31.83039063 11.79467773 32.64453125 C13.89211794 43.85550499 14.14726096 55.09412554 14.13371277 66.47088623 C14.13558512 67.89702134 14.1378875 69.32315595 14.14057809 70.74928975 C14.14665 74.63623822 14.14656799 78.52316503 14.14538372 82.41011715 C14.14517854 86.61475386 14.15070956 90.81938382 14.15544128 95.02401733 C14.16372282 103.24942763 14.16649498 111.47483076 14.16705366 119.70024487 C14.16752997 126.39032592 14.1695904 133.08040462 14.17275429 139.77048492 C14.18155368 158.76532256 14.18617473 177.76015456 14.18542381 196.75499424 C14.18536388 198.28876233 14.18536388 198.28876233 14.18530273 199.85351562 C14.18524141 201.38917021 14.18524141 201.38917021 14.18517885 202.95584813 C14.18477248 219.54385936 14.19434168 236.13184788 14.2084411 252.71985254 C14.22282583 269.77897851 14.22971015 286.83809343 14.22884732 303.89722562 C14.2285161 313.46393115 14.2312304 323.03061288 14.24202538 332.59731293 C14.25115796 340.74251388 14.25328302 348.88768022 14.24651595 357.03288409 C14.24326477 361.18271993 14.24314303 365.33248946 14.2518692 369.48231888 C14.2597975 373.29212161 14.25823912 377.10180615 14.24958507 380.91160622 C14.24735147 382.91932326 14.25482864 384.92704415 14.26282471 386.9347465 C14.15098129 416.84151332 5.66852903 445.17397303 -15.25 467.109375 C-17.06113447 468.88945644 -17.06113447 468.88945644 -18 471 C-18.66 471 -19.32 471 -20 471 C-20 471.66 -20 472.32 -20 473 C-23.46734066 476.23662407 -27.25438292 479.09366971 -31 482 C-31.79019531 482.61617187 -32.58039062 483.23234375 -33.39453125 483.8671875 C-55.23119454 500.01218217 -80.30674555 505.15891627 -106.96273804 505.14044189 C-108.46679244 505.14302996 -109.97084615 505.14604434 -111.47489893 505.1494453 C-115.58667266 505.15746691 -119.69842889 505.15930215 -123.81020951 505.16004276 C-128.25354363 505.16190183 -132.69686884 505.16945346 -137.14019775 505.17617798 C-146.84724922 505.18972795 -156.55429653 505.19578097 -166.26135588 505.20018864 C-172.33044363 505.20295703 -178.3995298 505.20719548 -184.46861649 505.21169281 C-201.29457435 505.22388171 -218.12053096 505.23418139 -234.94649315 505.2375679 C-236.02225642 505.23778747 -237.09801968 505.23800703 -238.20638184 505.23823325 C-239.28462261 505.23845153 -240.36286339 505.23866981 -241.47377813 505.2388947 C-243.65846276 505.23933816 -245.8431474 505.23978472 -248.02783203 505.24023438 C-249.11149581 505.2404558 -250.1951596 505.24067723 -251.31166168 505.24090537 C-268.85415318 505.24484982 -286.39660306 505.26229474 -303.93907849 505.2855939 C-321.97901127 505.30935897 -340.0189232 505.32177211 -358.05887187 505.32293582 C-368.1757189 505.32384975 -378.2925117 505.32953055 -388.40934372 505.34775543 C-397.02733173 505.36322624 -405.64524874 505.36823603 -414.26324801 505.36001733 C-418.65257629 505.35613523 -423.04176191 505.35691956 -427.43107224 505.37107468 C-467.40155531 505.49239326 -499.90661853 500.3292867 -530 472 C-530.90492188 471.19175781 -530.90492188 471.19175781 -531.828125 470.3671875 C-550.09993671 453.37611025 -561.44346943 426.8583158 -563.27946734 402.25499284 C-563.38248862 398.34711315 -563.40099875 394.44505404 -563.38095093 390.53642273 C-563.3844174 389.03899939 -563.38918854 387.54157861 -563.39513266 386.04416305 C-563.40753707 381.97396194 -563.40152101 377.90397465 -563.39217401 373.83377326 C-563.38533987 369.42668448 -563.39588633 365.01963051 -563.40411377 360.61254883 C-563.41740805 351.99582314 -563.41459234 343.37917613 -563.40587585 334.76244744 C-563.39908137 327.75351385 -563.39819019 320.74460221 -563.4014473 313.73566628 C-563.401907 312.73543951 -563.40236669 311.73521274 -563.40284032 310.70467607 C-563.40379957 308.67225123 -563.40477221 306.63982641 -563.4057581 304.60740159 C-563.41429973 285.5773115 -563.40449783 266.54726487 -563.388357 247.51718191 C-563.37496112 231.21952203 -563.37727828 214.92192629 -563.39111328 198.62426758 C-563.40720148 179.66366786 -563.41346939 160.70310619 -563.40427649 141.7425006 C-563.40332093 139.71692742 -563.40237781 137.69135422 -563.4014473 135.66578102 C-563.40098447 134.66936663 -563.40052164 133.67295223 -563.40004479 132.64634347 C-563.39746415 125.65448032 -563.40180598 118.66264147 -563.40888596 111.67078209 C-563.41733751 103.13738825 -563.41494475 94.6040771 -563.39904372 86.07069262 C-563.39120894 81.72411529 -563.38798652 77.37767535 -563.39799118 73.03109932 C-563.48233079 33.07640966 -563.48233079 33.07640966 -557 15.25 C-556.7525 14.52296875 -556.505 13.7959375 -556.25 13.046875 C-554.79257063 8.85676556 -553.0767631 4.93101587 -551 1 C-549.72665707 4.8200288 -550.51856033 5.6674081 -552.1875 9.25 C-559.43523484 25.98018792 -561.31887441 43.2548435 -561.24723816 61.31222534 C-561.24883101 62.79288856 -561.2512993 64.27355105 -561.25455457 65.75421154 C-561.2609012 69.77738729 -561.25495265 73.8004607 -561.24679029 77.82362962 C-561.24016134 82.17925705 -561.24517276 86.534874 -561.24867249 90.89050293 C-561.2536921 99.40124889 -561.24810251 107.91195572 -561.23882218 116.42269681 C-561.2284052 126.33371811 -561.22850919 136.2447311 -561.22899476 146.15575685 C-561.22949438 163.82926931 -561.22035794 181.50276361 -561.20581055 199.17626953 C-561.19169515 216.33382498 -561.18464112 233.49136445 -561.18530273 250.64892578 C-561.18534269 251.70778995 -561.18538265 252.76665412 -561.18542381 253.85760508 C-561.18546417 254.91462997 -561.18550452 255.97165485 -561.1855461 257.06071079 C-561.18623494 276.60063015 -561.18035556 296.14054272 -561.17139288 315.68045988 C-561.16837243 322.59464025 -561.16731288 329.50881938 -561.16686058 336.42300034 C-561.16618019 344.83388642 -561.16173928 353.24476104 -561.15252777 361.65564226 C-561.14789627 365.94943939 -561.14486928 370.24322183 -561.14612198 374.53702164 C-561.14721124 378.46061873 -561.14373435 382.3841832 -561.13647345 386.30777349 C-561.1346496 387.73330811 -561.13453994 389.15884607 -561.13624074 390.58438085 C-561.13828452 392.50927712 -561.13366897 394.43417714 -561.12863445 396.35906792 C-561.12793003 397.43200061 -561.1272256 398.5049333 -561.12649983 399.6103791 C-561.26955387 401.95335885 -561.26955387 401.95335885 -560 403 C-559.76365179 404.35508792 -559.58065225 405.71958706 -559.421875 407.0859375 C-558.18500034 416.90679734 -556.75107314 425.20067519 -552 434 C-551.15649785 435.89133091 -550.32326009 437.78727073 -549.5 439.6875 C-546.02489204 447.29604383 -541.64074265 453.64864332 -536.35546875 460.1171875 C-535 462 -535 462 -535 464 C-534.34 464 -533.68 464 -533 464 C-531.58984375 465.46875 -531.58984375 465.46875 -529.9375 467.5 C-521.65060088 477.23108901 -511.65064447 485.17965895 -500.0625 490.5625 C-498.82850464 491.13883179 -498.82850464 491.13883179 -497.56958008 491.72680664 C-480.13225295 499.64374441 -462.61835092 502.31846817 -443.52259827 502.25396729 C-442.01152743 502.2562775 -440.50045772 502.25945776 -438.98939031 502.26342177 C-434.87697322 502.27170148 -430.76465002 502.26767588 -426.65223277 502.26144934 C-422.20156473 502.25689761 -417.7509121 502.26392205 -413.30024719 502.26940918 C-404.59684099 502.27827615 -395.8934694 502.27639316 -387.19006187 502.2705839 C-380.11243235 502.26605648 -373.03481249 502.26545917 -365.95718193 502.26763153 C-364.44285016 502.26809123 -364.44285016 502.26809123 -362.89792584 502.26856022 C-360.84665128 502.26919971 -358.79537672 502.26984813 -356.74410217 502.2705054 C-337.53432818 502.27620087 -318.32457332 502.26966325 -299.11480247 502.25890467 C-282.65473179 502.24997123 -266.19468932 502.25152101 -249.73461914 502.26074219 C-230.59240948 502.27146101 -211.45021656 502.27565019 -192.30800432 502.26951766 C-190.26421416 502.2688806 -188.220424 502.26825186 -186.17663383 502.26763153 C-185.17120999 502.26732298 -184.16578614 502.26701443 -183.1298949 502.26669653 C-176.06650747 502.26497432 -169.00313072 502.26787447 -161.93974495 502.27259064 C-153.32354722 502.27821746 -144.7073859 502.27664533 -136.09119231 502.26602915 C-131.70046364 502.26079641 -127.30979552 502.25867449 -122.91906738 502.26532745 C-118.89042824 502.27133914 -114.86190512 502.26792688 -110.83327632 502.25737235 C-109.38525561 502.25516022 -107.93722485 502.25622461 -106.48921073 502.26112393 C-73.19943401 502.36501278 -43.35685569 491.65031849 -19.26953125 468.32421875 C-4.00221699 451.17407216 6.40379485 431.12617512 9.60546875 408.265625 C10 406 10 406 11 405 C11.09949023 403.08348813 11.1274002 401.16325181 11.12863445 399.2441597 C11.1318589 397.98571314 11.13508335 396.72726658 11.1384055 395.43068528 C11.13693402 394.01590353 11.13536627 392.60112188 11.13371277 391.18634033 C11.13557891 389.69743916 11.13787881 388.20853848 11.14057809 386.71963859 C11.14672767 382.60821907 11.14655879 378.49681979 11.14538372 374.38539672 C11.14518048 369.95839988 11.15069128 365.53140968 11.15544128 361.10441589 C11.16376744 352.42063028 11.16649708 343.73685144 11.16705366 335.05306217 C11.16752823 327.99179215 11.16958 320.93052438 11.17275429 313.86925507 C11.18156893 293.85349288 11.18617281 273.83773606 11.18542381 253.82197192 C11.18538386 252.74167334 11.1853439 251.66137475 11.18530273 250.54833984 C11.18526185 249.46672222 11.18522097 248.38510459 11.18517885 247.27071068 C11.18477293 229.76496043 11.19432676 212.25923175 11.2084411 194.75348774 C11.2228159 176.78280456 11.22971057 158.81213189 11.22884732 140.84144282 C11.22851557 130.75096779 11.2312529 120.66051532 11.24202538 110.57004547 C11.25114525 101.97214381 11.2532937 93.37427491 11.24651595 84.7763705 C11.24325726 80.39205321 11.24317031 76.00779873 11.2518692 71.62348747 C11.25976482 67.60245659 11.25827167 63.58153801 11.24958507 59.56050977 C11.2480567 58.11280735 11.24984097 56.66509642 11.25544515 55.21740404 C11.29885641 43.19820263 10.1634828 31.70314951 6.625 20.1875 C6.40948486 19.4653833 6.19396973 18.7432666 5.97192383 17.99926758 C4.44170729 13.02676783 2.43528496 8.59998271 0 4 C0 2.68 0 1.36 0 0 Z " fill="#010309" transform="translate(595,107)"/>
<path d="M0 0 C0.33 0 0.66 0 1 0 C3.11695908 22.18886736 -9.40239539 42.51872721 -23 59 C-23.4429541 59.56187012 -23.8859082 60.12374023 -24.34228516 60.70263672 C-25.51670558 62.17205985 -26.75405121 63.59071675 -28 65 C-28.66 65 -29.32 65 -30 65 C-30 65.66 -30 66.32 -30 67 C-33.46734066 70.23662407 -37.25438292 73.09366971 -41 76 C-41.79019531 76.61617187 -42.58039062 77.23234375 -43.39453125 77.8671875 C-55.72048044 86.98041058 -74.41306981 97.21656765 -90.109375 97.09765625 C-90.86347656 97.09443359 -91.61757813 97.09121094 -92.39453125 97.08789062 C-93.17183594 97.07951172 -93.94914062 97.07113281 -94.75 97.0625 C-95.54277344 97.05798828 -96.33554687 97.05347656 -97.15234375 97.04882812 C-99.10159508 97.03708565 -101.05080738 97.01915146 -103 97 C-103 96.67 -103 96.34 -103 96 C-102.09121094 95.90203125 -101.18242187 95.8040625 -100.24609375 95.703125 C-72.14395715 92.35969131 -44.6966147 80.60401668 -26.05078125 58.609375 C-12.14492289 40.9158257 -3.08443546 22.52449582 0 0 Z " fill="#03070C" transform="translate(605,513)"/>
<path d="M0 0 C-8.5438783 5.69591887 -23.67345029 3.11191296 -33.6875 3.0625 C-35.4680977 3.05747418 -37.24869677 3.05291319 -39.02929688 3.04882812 C-43.35289909 3.03791 -47.67643403 3.02070521 -52 3 C-52 2.67 -52 2.34 -52 2 C-51.07888428 1.98018066 -50.15776855 1.96036133 -49.20874023 1.93994141 C-45.71389603 1.86074681 -42.21939159 1.77403643 -38.72485352 1.68261719 C-37.22687694 1.64488397 -35.7288267 1.60994687 -34.23071289 1.578125 C-25.04296561 1.38073802 -16.13796191 0.78151132 -7.05883789 -0.68212891 C-4.29267621 -0.96958541 -2.59009763 -0.9095487 0 0 Z " fill="#0B2B49" transform="translate(361,490)"/>
<path d="M0 0 C0.66 0.33 1.32 0.66 2 1 C-1.3 4.3 -4.6 7.6 -8 11 C-8 6.67750434 -5.85084926 5.11604454 -3 2 C-2.01 1.34 -1.02 0.68 0 0 Z " fill="#14466E" transform="translate(235,436)"/>
<path d="M0 0 C0.33 0 0.66 0 1 0 C1.0810206 2.10353495 1.13919907 4.20795952 1.1875 6.3125 C1.22230469 7.48425781 1.25710938 8.65601563 1.29296875 9.86328125 C1 13 1 13 -2 16 C-1.34 10.72 -0.68 5.44 0 0 Z " fill="#050C16" transform="translate(605,513)"/>
<path d="M0 0 C0 3.96130371 -1.34877125 4.82914401 -4 7.6875 C-4.7425 8.49574219 -5.485 9.30398437 -6.25 10.13671875 C-6.8275 10.75160156 -7.405 11.36648437 -8 12 C-8.66 11.67 -9.32 11.34 -10 11 C-8.89718873 9.72799029 -7.79269231 8.45744147 -6.6875 7.1875 C-6.07261719 6.47980469 -5.45773437 5.77210938 -4.82421875 5.04296875 C-3.26665665 3.29863261 -1.67341125 1.63221959 0 0 Z " fill="#285677" transform="translate(285,207)"/>
<path d="M0 0 C0.66 0.33 1.32 0.66 2 1 C-0.87494471 4.98069267 -3.82117329 7.43571997 -8 10 C-7.1875 8.0625 -7.1875 8.0625 -6 6 C-5.01 5.67 -4.02 5.34 -3 5 C-1.8499169 3.03327085 -1.8499169 3.03327085 -1 1 C-0.67 0.67 -0.34 0.34 0 0 Z " fill="#09233D" transform="translate(505,476)"/>
</svg>
